<?xml version="1.0" encoding="UTF-8"?>
<svg viewBox="0 0 673.91 600.64" xmlns="http://www.w3.org/2000/svg">
<defs>
<style>.cls-1{fill:#a78bfa;}.cls-2{fill:#efaf27;}</style>
</defs>
<g data-name="img-bucket">
<path class="cls-1" d="M543.2,0H38.58A38.58,38.58,0,0,0,0,38.58V543.2a38.58,38.58,0,0,0,38.58,38.58H352.2L330.42,460.91l-39.21,20.56a46.68,46.68,0,1,1-43.37-82.68l65.22-34.2-14.95-83H276L72.6,497.45V72.6H509.18V196.72h72.6V38.58A38.58,38.58,0,0,0,543.2,0Z"/>
<circle class="cls-1" cx="185.68" cy="187.22" r="56.33"/>
<path class="cls-2" d="M673.91,218.87v41.88H653L616.81,456,590,600.64H380.76l-3.12-16.88L354,456l-1.22-6.6,170.36-86.75a44.58,44.58,0,0,0,4.79-2.82,45.47,45.47,0,0,0,9-7.93A46,46,0,0,0,513,277a46,46,0,0,0-31.58,3.74l-29.12,14.83L335.37,355.07l-.49-2.63-14-76-2.9-15.69H297V218.87Z"/>
<path class="cls-2" d="M525.57,322.56a25.13,25.13,0,0,1-13.7,22.36l-163,83-27.32,13.91-.68.35-42.39,21.59a25.06,25.06,0,1,1-22.75-44.67l56.53-28.79,8.61-4.38,18.5-9.42,129.15-65.77,20.63-10.51a25.07,25.07,0,0,1,36.45,22.31Z"/>
</g>
</svg>
