<?xml version="1.0" encoding="UTF-8"?>
<svg viewBox="0 0 630.81 583.06" xmlns="http://www.w3.org/2000/svg">
<style>circle, path { fill: #a38cf3 };</style>
<g data-name="image-bucket">
<circle cx="456.82" cy="409.75" r="24.74"/>
<path d="M590.83,0V57.29H562.19l-44.65,241H375.72A29.64,29.64,0,0,0,346.08,328V522.24H189.8l-38.24-206.9L384.61,196.66a62.9,62.9,0,1,0-57.09-112.1L127.72,186.31l-23.85-129H75.22V0Z"/>
<path d="m387.9 141.84a34.28 34.28 0 0 1-18.74 30.58l-223.02 113.58-96.29 49a34.28 34.28 0 1 1-31.12-61.1l319.27-162.58a34.3 34.3 0 0 1 49.86 30.52z"/>
<path d="M613.86,327.51H392.21a17,17,0,0,0-16.95,16.95V566.11a17,17,0,0,0,16.95,16.95H613.86a17,17,0,0,0,16.95-16.95V344.46A17,17,0,0,0,613.86,327.51ZM598.92,477.87l-67.55-63.66-43.93,46.62-57.88,61.41L407.15,546V359.4H598.92Z"/>
<circle cx="456.82" cy="409.75" r="24.74"/>
</g>
</svg>
